<?xml version="1.0" standalone="no"?>
<svg xmlns="http://www.w3.org/2000/svg" version="1.1" width="235" height="235">
	<!-- Created with https://api.qrserver.com (QR Code API, see goQR.me/api for information) -->
	<title>QR Code</title>
	<desc>BEGIN:VCARD
VERSION:2.1
FN:Oskar Jansson
N:Jansson;Oskar
EMAIL;WORK;INTERNET:info@oskarjansson.com
URL:http://www.oskarjansson.com
END:VCARD
</desc>
	<rect style="fill:rgb(255, 255, 255);fill-opacity:1" x="0" y="0" width="235" height="235" />
	<g id="elements">
		<path style="fill:rgb(0, 0, 0)" d="M 5,5 l 5,0 0,5 -5,0 z M 10,5 l 5,0 0,5 -5,0 z M 15,5 l 5,0 0,5 -5,0 z M 20,5 l 5,0 0,5 -5,0 z M 25,5 l 5,0 0,5 -5,0 z M 30,5 l 5,0 0,5 -5,0 z M 35,5 l 5,0 0,5 -5,0 z M 60,5 l 5,0 0,5 -5,0 z M 70,5 l 5,0 0,5 -5,0 z M 80,5 l 5,0 0,5 -5,0 z M 90,5 l 5,0 0,5 -5,0 z M 95,5 l 5,0 0,5 -5,0 z M 105,5 l 5,0 0,5 -5,0 z M 115,5 l 5,0 0,5 -5,0 z M 125,5 l 5,0 0,5 -5,0 z M 140,5 l 5,0 0,5 -5,0 z M 145,5 l 5,0 0,5 -5,0 z M 150,5 l 5,0 0,5 -5,0 z M 155,5 l 5,0 0,5 -5,0 z M 160,5 l 5,0 0,5 -5,0 z M 170,5 l 5,0 0,5 -5,0 z M 185,5 l 5,0 0,5 -5,0 z M 195,5 l 5,0 0,5 -5,0 z M 200,5 l 5,0 0,5 -5,0 z M 205,5 l 5,0 0,5 -5,0 z M 210,5 l 5,0 0,5 -5,0 z M 215,5 l 5,0 0,5 -5,0 z M 220,5 l 5,0 0,5 -5,0 z M 225,5 l 5,0 0,5 -5,0 z M 5,10 l 5,0 0,5 -5,0 z M 35,10 l 5,0 0,5 -5,0 z M 45,10 l 5,0 0,5 -5,0 z M 95,10 l 5,0 0,5 -5,0 z M 100,10 l 5,0 0,5 -5,0 z M 105,10 l 5,0 0,5 -5,0 z M 120,10 l 5,0 0,5 -5,0 z M 125,10 l 5,0 0,5 -5,0 z M 130,10 l 5,0 0,5 -5,0 z M 135,10 l 5,0 0,5 -5,0 z M 145,10 l 5,0 0,5 -5,0 z M 150,10 l 5,0 0,5 -5,0 z M 180,10 l 5,0 0,5 -5,0 z M 195,10 l 5,0 0,5 -5,0 z M 225,10 l 5,0 0,5 -5,0 z M 5,15 l 5,0 0,5 -5,0 z M 15,15 l 5,0 0,5 -5,0 z M 20,15 l 5,0 0,5 -5,0 z M 25,15 l 5,0 0,5 -5,0 z M 35,15 l 5,0 0,5 -5,0 z M 55,15 l 5,0 0,5 -5,0 z M 70,15 l 5,0 0,5 -5,0 z M 80,15 l 5,0 0,5 -5,0 z M 90,15 l 5,0 0,5 -5,0 z M 95,15 l 5,0 0,5 -5,0 z M 100,15 l 5,0 0,5 -5,0 z M 105,15 l 5,0 0,5 -5,0 z M 115,15 l 5,0 0,5 -5,0 z M 120,15 l 5,0 0,5 -5,0 z M 130,15 l 5,0 0,5 -5,0 z M 135,15 l 5,0 0,5 -5,0 z M 140,15 l 5,0 0,5 -5,0 z M 150,15 l 5,0 0,5 -5,0 z M 155,15 l 5,0 0,5 -5,0 z M 180,15 l 5,0 0,5 -5,0 z M 195,15 l 5,0 0,5 -5,0 z M 205,15 l 5,0 0,5 -5,0 z M 210,15 l 5,0 0,5 -5,0 z M 215,15 l 5,0 0,5 -5,0 z M 225,15 l 5,0 0,5 -5,0 z M 5,20 l 5,0 0,5 -5,0 z M 15,20 l 5,0 0,5 -5,0 z M 20,20 l 5,0 0,5 -5,0 z M 25,20 l 5,0 0,5 -5,0 z M 35,20 l 5,0 0,5 -5,0 z M 45,20 l 5,0 0,5 -5,0 z M 55,20 l 5,0 0,5 -5,0 z M 65,20 l 5,0 0,5 -5,0 z M 75,20 l 5,0 0,5 -5,0 z M 80,20 l 5,0 0,5 -5,0 z M 90,20 l 5,0 0,5 -5,0 z M 95,20 l 5,0 0,5 -5,0 z M 110,20 l 5,0 0,5 -5,0 z M 115,20 l 5,0 0,5 -5,0 z M 130,20 l 5,0 0,5 -5,0 z M 150,20 l 5,0 0,5 -5,0 z M 155,20 l 5,0 0,5 -5,0 z M 160,20 l 5,0 0,5 -5,0 z M 170,20 l 5,0 0,5 -5,0 z M 180,20 l 5,0 0,5 -5,0 z M 185,20 l 5,0 0,5 -5,0 z M 195,20 l 5,0 0,5 -5,0 z M 205,20 l 5,0 0,5 -5,0 z M 210,20 l 5,0 0,5 -5,0 z M 215,20 l 5,0 0,5 -5,0 z M 225,20 l 5,0 0,5 -5,0 z M 5,25 l 5,0 0,5 -5,0 z M 15,25 l 5,0 0,5 -5,0 z M 20,25 l 5,0 0,5 -5,0 z M 25,25 l 5,0 0,5 -5,0 z M 35,25 l 5,0 0,5 -5,0 z M 50,25 l 5,0 0,5 -5,0 z M 55,25 l 5,0 0,5 -5,0 z M 60,25 l 5,0 0,5 -5,0 z M 75,25 l 5,0 0,5 -5,0 z M 95,25 l 5,0 0,5 -5,0 z M 100,25 l 5,0 0,5 -5,0 z M 105,25 l 5,0 0,5 -5,0 z M 110,25 l 5,0 0,5 -5,0 z M 115,25 l 5,0 0,5 -5,0 z M 120,25 l 5,0 0,5 -5,0 z M 125,25 l 5,0 0,5 -5,0 z M 130,25 l 5,0 0,5 -5,0 z M 140,25 l 5,0 0,5 -5,0 z M 145,25 l 5,0 0,5 -5,0 z M 150,25 l 5,0 0,5 -5,0 z M 160,25 l 5,0 0,5 -5,0 z M 165,25 l 5,0 0,5 -5,0 z M 175,25 l 5,0 0,5 -5,0 z M 180,25 l 5,0 0,5 -5,0 z M 185,25 l 5,0 0,5 -5,0 z M 195,25 l 5,0 0,5 -5,0 z M 205,25 l 5,0 0,5 -5,0 z M 210,25 l 5,0 0,5 -5,0 z M 215,25 l 5,0 0,5 -5,0 z M 225,25 l 5,0 0,5 -5,0 z M 5,30 l 5,0 0,5 -5,0 z M 35,30 l 5,0 0,5 -5,0 z M 45,30 l 5,0 0,5 -5,0 z M 65,30 l 5,0 0,5 -5,0 z M 70,30 l 5,0 0,5 -5,0 z M 75,30 l 5,0 0,5 -5,0 z M 85,30 l 5,0 0,5 -5,0 z M 90,30 l 5,0 0,5 -5,0 z M 105,30 l 5,0 0,5 -5,0 z M 125,30 l 5,0 0,5 -5,0 z M 145,30 l 5,0 0,5 -5,0 z M 160,30 l 5,0 0,5 -5,0 z M 170,30 l 5,0 0,5 -5,0 z M 195,30 l 5,0 0,5 -5,0 z M 225,30 l 5,0 0,5 -5,0 z M 5,35 l 5,0 0,5 -5,0 z M 10,35 l 5,0 0,5 -5,0 z M 15,35 l 5,0 0,5 -5,0 z M 20,35 l 5,0 0,5 -5,0 z M 25,35 l 5,0 0,5 -5,0 z M 30,35 l 5,0 0,5 -5,0 z M 35,35 l 5,0 0,5 -5,0 z M 45,35 l 5,0 0,5 -5,0 z M 55,35 l 5,0 0,5 -5,0 z M 65,35 l 5,0 0,5 -5,0 z M 75,35 l 5,0 0,5 -5,0 z M 85,35 l 5,0 0,5 -5,0 z M 95,35 l 5,0 0,5 -5,0 z M 105,35 l 5,0 0,5 -5,0 z M 115,35 l 5,0 0,5 -5,0 z M 125,35 l 5,0 0,5 -5,0 z M 135,35 l 5,0 0,5 -5,0 z M 145,35 l 5,0 0,5 -5,0 z M 155,35 l 5,0 0,5 -5,0 z M 165,35 l 5,0 0,5 -5,0 z M 175,35 l 5,0 0,5 -5,0 z M 185,35 l 5,0 0,5 -5,0 z M 195,35 l 5,0 0,5 -5,0 z M 200,35 l 5,0 0,5 -5,0 z M 205,35 l 5,0 0,5 -5,0 z M 210,35 l 5,0 0,5 -5,0 z M 215,35 l 5,0 0,5 -5,0 z M 220,35 l 5,0 0,5 -5,0 z M 225,35 l 5,0 0,5 -5,0 z M 50,40 l 5,0 0,5 -5,0 z M 55,40 l 5,0 0,5 -5,0 z M 65,40 l 5,0 0,5 -5,0 z M 75,40 l 5,0 0,5 -5,0 z M 80,40 l 5,0 0,5 -5,0 z M 85,40 l 5,0 0,5 -5,0 z M 90,40 l 5,0 0,5 -5,0 z M 95,40 l 5,0 0,5 -5,0 z M 100,40 l 5,0 0,5 -5,0 z M 105,40 l 5,0 0,5 -5,0 z M 125,40 l 5,0 0,5 -5,0 z M 135,40 l 5,0 0,5 -5,0 z M 140,40 l 5,0 0,5 -5,0 z M 155,40 l 5,0 0,5 -5,0 z M 165,40 l 5,0 0,5 -5,0 z M 170,40 l 5,0 0,5 -5,0 z M 180,40 l 5,0 0,5 -5,0 z M 5,45 l 5,0 0,5 -5,0 z M 10,45 l 5,0 0,5 -5,0 z M 15,45 l 5,0 0,5 -5,0 z M 20,45 l 5,0 0,5 -5,0 z M 25,45 l 5,0 0,5 -5,0 z M 35,45 l 5,0 0,5 -5,0 z M 40,45 l 5,0 0,5 -5,0 z M 45,45 l 5,0 0,5 -5,0 z M 55,45 l 5,0 0,5 -5,0 z M 60,45 l 5,0 0,5 -5,0 z M 65,45 l 5,0 0,5 -5,0 z M 70,45 l 5,0 0,5 -5,0 z M 75,45 l 5,0 0,5 -5,0 z M 80,45 l 5,0 0,5 -5,0 z M 90,45 l 5,0 0,5 -5,0 z M 105,45 l 5,0 0,5 -5,0 z M 110,45 l 5,0 0,5 -5,0 z M 115,45 l 5,0 0,5 -5,0 z M 120,45 l 5,0 0,5 -5,0 z M 125,45 l 5,0 0,5 -5,0 z M 135,45 l 5,0 0,5 -5,0 z M 160,45 l 5,0 0,5 -5,0 z M 170,45 l 5,0 0,5 -5,0 z M 180,45 l 5,0 0,5 -5,0 z M 185,45 l 5,0 0,5 -5,0 z M 190,45 l 5,0 0,5 -5,0 z M 200,45 l 5,0 0,5 -5,0 z M 210,45 l 5,0 0,5 -5,0 z M 220,45 l 5,0 0,5 -5,0 z M 10,50 l 5,0 0,5 -5,0 z M 15,50 l 5,0 0,5 -5,0 z M 25,50 l 5,0 0,5 -5,0 z M 40,50 l 5,0 0,5 -5,0 z M 50,50 l 5,0 0,5 -5,0 z M 60,50 l 5,0 0,5 -5,0 z M 65,50 l 5,0 0,5 -5,0 z M 85,50 l 5,0 0,5 -5,0 z M 90,50 l 5,0 0,5 -5,0 z M 95,50 l 5,0 0,5 -5,0 z M 100,50 l 5,0 0,5 -5,0 z M 105,50 l 5,0 0,5 -5,0 z M 115,50 l 5,0 0,5 -5,0 z M 130,50 l 5,0 0,5 -5,0 z M 140,50 l 5,0 0,5 -5,0 z M 145,50 l 5,0 0,5 -5,0 z M 155,50 l 5,0 0,5 -5,0 z M 160,50 l 5,0 0,5 -5,0 z M 165,50 l 5,0 0,5 -5,0 z M 170,50 l 5,0 0,5 -5,0 z M 185,50 l 5,0 0,5 -5,0 z M 200,50 l 5,0 0,5 -5,0 z M 210,50 l 5,0 0,5 -5,0 z M 5,55 l 5,0 0,5 -5,0 z M 20,55 l 5,0 0,5 -5,0 z M 25,55 l 5,0 0,5 -5,0 z M 35,55 l 5,0 0,5 -5,0 z M 40,55 l 5,0 0,5 -5,0 z M 45,55 l 5,0 0,5 -5,0 z M 55,55 l 5,0 0,5 -5,0 z M 70,55 l 5,0 0,5 -5,0 z M 80,55 l 5,0 0,5 -5,0 z M 85,55 l 5,0 0,5 -5,0 z M 100,55 l 5,0 0,5 -5,0 z M 105,55 l 5,0 0,5 -5,0 z M 115,55 l 5,0 0,5 -5,0 z M 120,55 l 5,0 0,5 -5,0 z M 125,55 l 5,0 0,5 -5,0 z M 140,55 l 5,0 0,5 -5,0 z M 145,55 l 5,0 0,5 -5,0 z M 165,55 l 5,0 0,5 -5,0 z M 190,55 l 5,0 0,5 -5,0 z M 200,55 l 5,0 0,5 -5,0 z M 205,55 l 5,0 0,5 -5,0 z M 210,55 l 5,0 0,5 -5,0 z M 215,55 l 5,0 0,5 -5,0 z M 5,60 l 5,0 0,5 -5,0 z M 15,60 l 5,0 0,5 -5,0 z M 25,60 l 5,0 0,5 -5,0 z M 40,60 l 5,0 0,5 -5,0 z M 55,60 l 5,0 0,5 -5,0 z M 60,60 l 5,0 0,5 -5,0 z M 65,60 l 5,0 0,5 -5,0 z M 85,60 l 5,0 0,5 -5,0 z M 90,60 l 5,0 0,5 -5,0 z M 95,60 l 5,0 0,5 -5,0 z M 105,60 l 5,0 0,5 -5,0 z M 125,60 l 5,0 0,5 -5,0 z M 130,60 l 5,0 0,5 -5,0 z M 135,60 l 5,0 0,5 -5,0 z M 140,60 l 5,0 0,5 -5,0 z M 145,60 l 5,0 0,5 -5,0 z M 150,60 l 5,0 0,5 -5,0 z M 155,60 l 5,0 0,5 -5,0 z M 170,60 l 5,0 0,5 -5,0 z M 185,60 l 5,0 0,5 -5,0 z M 190,60 l 5,0 0,5 -5,0 z M 195,60 l 5,0 0,5 -5,0 z M 200,60 l 5,0 0,5 -5,0 z M 210,60 l 5,0 0,5 -5,0 z M 220,60 l 5,0 0,5 -5,0 z M 5,65 l 5,0 0,5 -5,0 z M 20,65 l 5,0 0,5 -5,0 z M 25,65 l 5,0 0,5 -5,0 z M 35,65 l 5,0 0,5 -5,0 z M 45,65 l 5,0 0,5 -5,0 z M 55,65 l 5,0 0,5 -5,0 z M 60,65 l 5,0 0,5 -5,0 z M 70,65 l 5,0 0,5 -5,0 z M 75,65 l 5,0 0,5 -5,0 z M 80,65 l 5,0 0,5 -5,0 z M 90,65 l 5,0 0,5 -5,0 z M 95,65 l 5,0 0,5 -5,0 z M 105,65 l 5,0 0,5 -5,0 z M 115,65 l 5,0 0,5 -5,0 z M 120,65 l 5,0 0,5 -5,0 z M 140,65 l 5,0 0,5 -5,0 z M 150,65 l 5,0 0,5 -5,0 z M 155,65 l 5,0 0,5 -5,0 z M 195,65 l 5,0 0,5 -5,0 z M 205,65 l 5,0 0,5 -5,0 z M 220,65 l 5,0 0,5 -5,0 z M 10,70 l 5,0 0,5 -5,0 z M 15,70 l 5,0 0,5 -5,0 z M 25,70 l 5,0 0,5 -5,0 z M 40,70 l 5,0 0,5 -5,0 z M 45,70 l 5,0 0,5 -5,0 z M 55,70 l 5,0 0,5 -5,0 z M 70,70 l 5,0 0,5 -5,0 z M 75,70 l 5,0 0,5 -5,0 z M 95,70 l 5,0 0,5 -5,0 z M 100,70 l 5,0 0,5 -5,0 z M 115,70 l 5,0 0,5 -5,0 z M 120,70 l 5,0 0,5 -5,0 z M 140,70 l 5,0 0,5 -5,0 z M 150,70 l 5,0 0,5 -5,0 z M 165,70 l 5,0 0,5 -5,0 z M 180,70 l 5,0 0,5 -5,0 z M 190,70 l 5,0 0,5 -5,0 z M 210,70 l 5,0 0,5 -5,0 z M 5,75 l 5,0 0,5 -5,0 z M 20,75 l 5,0 0,5 -5,0 z M 25,75 l 5,0 0,5 -5,0 z M 30,75 l 5,0 0,5 -5,0 z M 35,75 l 5,0 0,5 -5,0 z M 45,75 l 5,0 0,5 -5,0 z M 50,75 l 5,0 0,5 -5,0 z M 55,75 l 5,0 0,5 -5,0 z M 65,75 l 5,0 0,5 -5,0 z M 80,75 l 5,0 0,5 -5,0 z M 95,75 l 5,0 0,5 -5,0 z M 125,75 l 5,0 0,5 -5,0 z M 135,75 l 5,0 0,5 -5,0 z M 145,75 l 5,0 0,5 -5,0 z M 160,75 l 5,0 0,5 -5,0 z M 165,75 l 5,0 0,5 -5,0 z M 170,75 l 5,0 0,5 -5,0 z M 180,75 l 5,0 0,5 -5,0 z M 185,75 l 5,0 0,5 -5,0 z M 195,75 l 5,0 0,5 -5,0 z M 205,75 l 5,0 0,5 -5,0 z M 210,75 l 5,0 0,5 -5,0 z M 215,75 l 5,0 0,5 -5,0 z M 10,80 l 5,0 0,5 -5,0 z M 15,80 l 5,0 0,5 -5,0 z M 25,80 l 5,0 0,5 -5,0 z M 40,80 l 5,0 0,5 -5,0 z M 45,80 l 5,0 0,5 -5,0 z M 55,80 l 5,0 0,5 -5,0 z M 65,80 l 5,0 0,5 -5,0 z M 70,80 l 5,0 0,5 -5,0 z M 80,80 l 5,0 0,5 -5,0 z M 90,80 l 5,0 0,5 -5,0 z M 100,80 l 5,0 0,5 -5,0 z M 110,80 l 5,0 0,5 -5,0 z M 115,80 l 5,0 0,5 -5,0 z M 135,80 l 5,0 0,5 -5,0 z M 140,80 l 5,0 0,5 -5,0 z M 155,80 l 5,0 0,5 -5,0 z M 165,80 l 5,0 0,5 -5,0 z M 180,80 l 5,0 0,5 -5,0 z M 190,80 l 5,0 0,5 -5,0 z M 200,80 l 5,0 0,5 -5,0 z M 210,80 l 5,0 0,5 -5,0 z M 20,85 l 5,0 0,5 -5,0 z M 35,85 l 5,0 0,5 -5,0 z M 55,85 l 5,0 0,5 -5,0 z M 60,85 l 5,0 0,5 -5,0 z M 65,85 l 5,0 0,5 -5,0 z M 90,85 l 5,0 0,5 -5,0 z M 95,85 l 5,0 0,5 -5,0 z M 100,85 l 5,0 0,5 -5,0 z M 110,85 l 5,0 0,5 -5,0 z M 115,85 l 5,0 0,5 -5,0 z M 120,85 l 5,0 0,5 -5,0 z M 135,85 l 5,0 0,5 -5,0 z M 140,85 l 5,0 0,5 -5,0 z M 155,85 l 5,0 0,5 -5,0 z M 160,85 l 5,0 0,5 -5,0 z M 170,85 l 5,0 0,5 -5,0 z M 190,85 l 5,0 0,5 -5,0 z M 195,85 l 5,0 0,5 -5,0 z M 200,85 l 5,0 0,5 -5,0 z M 205,85 l 5,0 0,5 -5,0 z M 225,85 l 5,0 0,5 -5,0 z M 5,90 l 5,0 0,5 -5,0 z M 20,90 l 5,0 0,5 -5,0 z M 30,90 l 5,0 0,5 -5,0 z M 50,90 l 5,0 0,5 -5,0 z M 65,90 l 5,0 0,5 -5,0 z M 70,90 l 5,0 0,5 -5,0 z M 80,90 l 5,0 0,5 -5,0 z M 90,90 l 5,0 0,5 -5,0 z M 95,90 l 5,0 0,5 -5,0 z M 100,90 l 5,0 0,5 -5,0 z M 110,90 l 5,0 0,5 -5,0 z M 125,90 l 5,0 0,5 -5,0 z M 130,90 l 5,0 0,5 -5,0 z M 140,90 l 5,0 0,5 -5,0 z M 145,90 l 5,0 0,5 -5,0 z M 150,90 l 5,0 0,5 -5,0 z M 155,90 l 5,0 0,5 -5,0 z M 160,90 l 5,0 0,5 -5,0 z M 165,90 l 5,0 0,5 -5,0 z M 170,90 l 5,0 0,5 -5,0 z M 180,90 l 5,0 0,5 -5,0 z M 190,90 l 5,0 0,5 -5,0 z M 200,90 l 5,0 0,5 -5,0 z M 205,90 l 5,0 0,5 -5,0 z M 210,90 l 5,0 0,5 -5,0 z M 5,95 l 5,0 0,5 -5,0 z M 10,95 l 5,0 0,5 -5,0 z M 15,95 l 5,0 0,5 -5,0 z M 20,95 l 5,0 0,5 -5,0 z M 25,95 l 5,0 0,5 -5,0 z M 30,95 l 5,0 0,5 -5,0 z M 35,95 l 5,0 0,5 -5,0 z M 45,95 l 5,0 0,5 -5,0 z M 55,95 l 5,0 0,5 -5,0 z M 65,95 l 5,0 0,5 -5,0 z M 90,95 l 5,0 0,5 -5,0 z M 100,95 l 5,0 0,5 -5,0 z M 115,95 l 5,0 0,5 -5,0 z M 120,95 l 5,0 0,5 -5,0 z M 135,95 l 5,0 0,5 -5,0 z M 145,95 l 5,0 0,5 -5,0 z M 155,95 l 5,0 0,5 -5,0 z M 170,95 l 5,0 0,5 -5,0 z M 175,95 l 5,0 0,5 -5,0 z M 195,95 l 5,0 0,5 -5,0 z M 200,95 l 5,0 0,5 -5,0 z M 220,95 l 5,0 0,5 -5,0 z M 225,95 l 5,0 0,5 -5,0 z M 40,100 l 5,0 0,5 -5,0 z M 65,100 l 5,0 0,5 -5,0 z M 70,100 l 5,0 0,5 -5,0 z M 75,100 l 5,0 0,5 -5,0 z M 80,100 l 5,0 0,5 -5,0 z M 95,100 l 5,0 0,5 -5,0 z M 100,100 l 5,0 0,5 -5,0 z M 105,100 l 5,0 0,5 -5,0 z M 120,100 l 5,0 0,5 -5,0 z M 125,100 l 5,0 0,5 -5,0 z M 130,100 l 5,0 0,5 -5,0 z M 135,100 l 5,0 0,5 -5,0 z M 140,100 l 5,0 0,5 -5,0 z M 145,100 l 5,0 0,5 -5,0 z M 150,100 l 5,0 0,5 -5,0 z M 170,100 l 5,0 0,5 -5,0 z M 175,100 l 5,0 0,5 -5,0 z M 180,100 l 5,0 0,5 -5,0 z M 185,100 l 5,0 0,5 -5,0 z M 190,100 l 5,0 0,5 -5,0 z M 195,100 l 5,0 0,5 -5,0 z M 200,100 l 5,0 0,5 -5,0 z M 205,100 l 5,0 0,5 -5,0 z M 210,100 l 5,0 0,5 -5,0 z M 215,100 l 5,0 0,5 -5,0 z M 220,100 l 5,0 0,5 -5,0 z M 20,105 l 5,0 0,5 -5,0 z M 25,105 l 5,0 0,5 -5,0 z M 30,105 l 5,0 0,5 -5,0 z M 35,105 l 5,0 0,5 -5,0 z M 40,105 l 5,0 0,5 -5,0 z M 45,105 l 5,0 0,5 -5,0 z M 55,105 l 5,0 0,5 -5,0 z M 60,105 l 5,0 0,5 -5,0 z M 65,105 l 5,0 0,5 -5,0 z M 70,105 l 5,0 0,5 -5,0 z M 80,105 l 5,0 0,5 -5,0 z M 85,105 l 5,0 0,5 -5,0 z M 95,105 l 5,0 0,5 -5,0 z M 100,105 l 5,0 0,5 -5,0 z M 105,105 l 5,0 0,5 -5,0 z M 110,105 l 5,0 0,5 -5,0 z M 115,105 l 5,0 0,5 -5,0 z M 120,105 l 5,0 0,5 -5,0 z M 125,105 l 5,0 0,5 -5,0 z M 130,105 l 5,0 0,5 -5,0 z M 165,105 l 5,0 0,5 -5,0 z M 170,105 l 5,0 0,5 -5,0 z M 175,105 l 5,0 0,5 -5,0 z M 185,105 l 5,0 0,5 -5,0 z M 190,105 l 5,0 0,5 -5,0 z M 195,105 l 5,0 0,5 -5,0 z M 200,105 l 5,0 0,5 -5,0 z M 205,105 l 5,0 0,5 -5,0 z M 220,105 l 5,0 0,5 -5,0 z M 5,110 l 5,0 0,5 -5,0 z M 20,110 l 5,0 0,5 -5,0 z M 25,110 l 5,0 0,5 -5,0 z M 45,110 l 5,0 0,5 -5,0 z M 50,110 l 5,0 0,5 -5,0 z M 65,110 l 5,0 0,5 -5,0 z M 70,110 l 5,0 0,5 -5,0 z M 80,110 l 5,0 0,5 -5,0 z M 90,110 l 5,0 0,5 -5,0 z M 105,110 l 5,0 0,5 -5,0 z M 125,110 l 5,0 0,5 -5,0 z M 130,110 l 5,0 0,5 -5,0 z M 135,110 l 5,0 0,5 -5,0 z M 150,110 l 5,0 0,5 -5,0 z M 165,110 l 5,0 0,5 -5,0 z M 170,110 l 5,0 0,5 -5,0 z M 175,110 l 5,0 0,5 -5,0 z M 180,110 l 5,0 0,5 -5,0 z M 185,110 l 5,0 0,5 -5,0 z M 205,110 l 5,0 0,5 -5,0 z M 225,110 l 5,0 0,5 -5,0 z M 10,115 l 5,0 0,5 -5,0 z M 20,115 l 5,0 0,5 -5,0 z M 25,115 l 5,0 0,5 -5,0 z M 35,115 l 5,0 0,5 -5,0 z M 45,115 l 5,0 0,5 -5,0 z M 50,115 l 5,0 0,5 -5,0 z M 55,115 l 5,0 0,5 -5,0 z M 60,115 l 5,0 0,5 -5,0 z M 65,115 l 5,0 0,5 -5,0 z M 70,115 l 5,0 0,5 -5,0 z M 75,115 l 5,0 0,5 -5,0 z M 85,115 l 5,0 0,5 -5,0 z M 95,115 l 5,0 0,5 -5,0 z M 105,115 l 5,0 0,5 -5,0 z M 115,115 l 5,0 0,5 -5,0 z M 125,115 l 5,0 0,5 -5,0 z M 145,115 l 5,0 0,5 -5,0 z M 160,115 l 5,0 0,5 -5,0 z M 165,115 l 5,0 0,5 -5,0 z M 170,115 l 5,0 0,5 -5,0 z M 175,115 l 5,0 0,5 -5,0 z M 180,115 l 5,0 0,5 -5,0 z M 185,115 l 5,0 0,5 -5,0 z M 195,115 l 5,0 0,5 -5,0 z M 205,115 l 5,0 0,5 -5,0 z M 210,115 l 5,0 0,5 -5,0 z M 220,115 l 5,0 0,5 -5,0 z M 225,115 l 5,0 0,5 -5,0 z M 5,120 l 5,0 0,5 -5,0 z M 10,120 l 5,0 0,5 -5,0 z M 15,120 l 5,0 0,5 -5,0 z M 25,120 l 5,0 0,5 -5,0 z M 45,120 l 5,0 0,5 -5,0 z M 60,120 l 5,0 0,5 -5,0 z M 75,120 l 5,0 0,5 -5,0 z M 80,120 l 5,0 0,5 -5,0 z M 85,120 l 5,0 0,5 -5,0 z M 95,120 l 5,0 0,5 -5,0 z M 100,120 l 5,0 0,5 -5,0 z M 105,120 l 5,0 0,5 -5,0 z M 125,120 l 5,0 0,5 -5,0 z M 140,120 l 5,0 0,5 -5,0 z M 145,120 l 5,0 0,5 -5,0 z M 160,120 l 5,0 0,5 -5,0 z M 165,120 l 5,0 0,5 -5,0 z M 175,120 l 5,0 0,5 -5,0 z M 185,120 l 5,0 0,5 -5,0 z M 205,120 l 5,0 0,5 -5,0 z M 210,120 l 5,0 0,5 -5,0 z M 220,120 l 5,0 0,5 -5,0 z M 20,125 l 5,0 0,5 -5,0 z M 25,125 l 5,0 0,5 -5,0 z M 30,125 l 5,0 0,5 -5,0 z M 35,125 l 5,0 0,5 -5,0 z M 40,125 l 5,0 0,5 -5,0 z M 45,125 l 5,0 0,5 -5,0 z M 60,125 l 5,0 0,5 -5,0 z M 65,125 l 5,0 0,5 -5,0 z M 70,125 l 5,0 0,5 -5,0 z M 75,125 l 5,0 0,5 -5,0 z M 80,125 l 5,0 0,5 -5,0 z M 95,125 l 5,0 0,5 -5,0 z M 105,125 l 5,0 0,5 -5,0 z M 110,125 l 5,0 0,5 -5,0 z M 115,125 l 5,0 0,5 -5,0 z M 120,125 l 5,0 0,5 -5,0 z M 125,125 l 5,0 0,5 -5,0 z M 130,125 l 5,0 0,5 -5,0 z M 160,125 l 5,0 0,5 -5,0 z M 185,125 l 5,0 0,5 -5,0 z M 190,125 l 5,0 0,5 -5,0 z M 195,125 l 5,0 0,5 -5,0 z M 200,125 l 5,0 0,5 -5,0 z M 205,125 l 5,0 0,5 -5,0 z M 210,125 l 5,0 0,5 -5,0 z M 220,125 l 5,0 0,5 -5,0 z M 225,125 l 5,0 0,5 -5,0 z M 15,130 l 5,0 0,5 -5,0 z M 30,130 l 5,0 0,5 -5,0 z M 40,130 l 5,0 0,5 -5,0 z M 50,130 l 5,0 0,5 -5,0 z M 65,130 l 5,0 0,5 -5,0 z M 85,130 l 5,0 0,5 -5,0 z M 95,130 l 5,0 0,5 -5,0 z M 105,130 l 5,0 0,5 -5,0 z M 110,130 l 5,0 0,5 -5,0 z M 115,130 l 5,0 0,5 -5,0 z M 120,130 l 5,0 0,5 -5,0 z M 125,130 l 5,0 0,5 -5,0 z M 130,130 l 5,0 0,5 -5,0 z M 145,130 l 5,0 0,5 -5,0 z M 150,130 l 5,0 0,5 -5,0 z M 155,130 l 5,0 0,5 -5,0 z M 160,130 l 5,0 0,5 -5,0 z M 165,130 l 5,0 0,5 -5,0 z M 170,130 l 5,0 0,5 -5,0 z M 195,130 l 5,0 0,5 -5,0 z M 200,130 l 5,0 0,5 -5,0 z M 210,130 l 5,0 0,5 -5,0 z M 220,130 l 5,0 0,5 -5,0 z M 10,135 l 5,0 0,5 -5,0 z M 15,135 l 5,0 0,5 -5,0 z M 30,135 l 5,0 0,5 -5,0 z M 35,135 l 5,0 0,5 -5,0 z M 45,135 l 5,0 0,5 -5,0 z M 50,135 l 5,0 0,5 -5,0 z M 55,135 l 5,0 0,5 -5,0 z M 60,135 l 5,0 0,5 -5,0 z M 65,135 l 5,0 0,5 -5,0 z M 75,135 l 5,0 0,5 -5,0 z M 80,135 l 5,0 0,5 -5,0 z M 85,135 l 5,0 0,5 -5,0 z M 110,135 l 5,0 0,5 -5,0 z M 135,135 l 5,0 0,5 -5,0 z M 145,135 l 5,0 0,5 -5,0 z M 160,135 l 5,0 0,5 -5,0 z M 165,135 l 5,0 0,5 -5,0 z M 170,135 l 5,0 0,5 -5,0 z M 180,135 l 5,0 0,5 -5,0 z M 185,135 l 5,0 0,5 -5,0 z M 190,135 l 5,0 0,5 -5,0 z M 200,135 l 5,0 0,5 -5,0 z M 210,135 l 5,0 0,5 -5,0 z M 215,135 l 5,0 0,5 -5,0 z M 220,135 l 5,0 0,5 -5,0 z M 225,135 l 5,0 0,5 -5,0 z M 5,140 l 5,0 0,5 -5,0 z M 10,140 l 5,0 0,5 -5,0 z M 15,140 l 5,0 0,5 -5,0 z M 25,140 l 5,0 0,5 -5,0 z M 30,140 l 5,0 0,5 -5,0 z M 50,140 l 5,0 0,5 -5,0 z M 55,140 l 5,0 0,5 -5,0 z M 65,140 l 5,0 0,5 -5,0 z M 70,140 l 5,0 0,5 -5,0 z M 85,140 l 5,0 0,5 -5,0 z M 90,140 l 5,0 0,5 -5,0 z M 100,140 l 5,0 0,5 -5,0 z M 120,140 l 5,0 0,5 -5,0 z M 125,140 l 5,0 0,5 -5,0 z M 130,140 l 5,0 0,5 -5,0 z M 135,140 l 5,0 0,5 -5,0 z M 140,140 l 5,0 0,5 -5,0 z M 145,140 l 5,0 0,5 -5,0 z M 150,140 l 5,0 0,5 -5,0 z M 170,140 l 5,0 0,5 -5,0 z M 175,140 l 5,0 0,5 -5,0 z M 185,140 l 5,0 0,5 -5,0 z M 195,140 l 5,0 0,5 -5,0 z M 205,140 l 5,0 0,5 -5,0 z M 210,140 l 5,0 0,5 -5,0 z M 215,140 l 5,0 0,5 -5,0 z M 220,140 l 5,0 0,5 -5,0 z M 225,140 l 5,0 0,5 -5,0 z M 5,145 l 5,0 0,5 -5,0 z M 15,145 l 5,0 0,5 -5,0 z M 20,145 l 5,0 0,5 -5,0 z M 35,145 l 5,0 0,5 -5,0 z M 40,145 l 5,0 0,5 -5,0 z M 50,145 l 5,0 0,5 -5,0 z M 55,145 l 5,0 0,5 -5,0 z M 70,145 l 5,0 0,5 -5,0 z M 85,145 l 5,0 0,5 -5,0 z M 90,145 l 5,0 0,5 -5,0 z M 95,145 l 5,0 0,5 -5,0 z M 100,145 l 5,0 0,5 -5,0 z M 120,145 l 5,0 0,5 -5,0 z M 135,145 l 5,0 0,5 -5,0 z M 165,145 l 5,0 0,5 -5,0 z M 170,145 l 5,0 0,5 -5,0 z M 175,145 l 5,0 0,5 -5,0 z M 180,145 l 5,0 0,5 -5,0 z M 185,145 l 5,0 0,5 -5,0 z M 200,145 l 5,0 0,5 -5,0 z M 220,145 l 5,0 0,5 -5,0 z M 225,145 l 5,0 0,5 -5,0 z M 5,150 l 5,0 0,5 -5,0 z M 15,150 l 5,0 0,5 -5,0 z M 20,150 l 5,0 0,5 -5,0 z M 30,150 l 5,0 0,5 -5,0 z M 40,150 l 5,0 0,5 -5,0 z M 45,150 l 5,0 0,5 -5,0 z M 50,150 l 5,0 0,5 -5,0 z M 65,150 l 5,0 0,5 -5,0 z M 80,150 l 5,0 0,5 -5,0 z M 90,150 l 5,0 0,5 -5,0 z M 95,150 l 5,0 0,5 -5,0 z M 100,150 l 5,0 0,5 -5,0 z M 110,150 l 5,0 0,5 -5,0 z M 120,150 l 5,0 0,5 -5,0 z M 130,150 l 5,0 0,5 -5,0 z M 140,150 l 5,0 0,5 -5,0 z M 145,150 l 5,0 0,5 -5,0 z M 150,150 l 5,0 0,5 -5,0 z M 165,150 l 5,0 0,5 -5,0 z M 180,150 l 5,0 0,5 -5,0 z M 185,150 l 5,0 0,5 -5,0 z M 5,155 l 5,0 0,5 -5,0 z M 15,155 l 5,0 0,5 -5,0 z M 30,155 l 5,0 0,5 -5,0 z M 35,155 l 5,0 0,5 -5,0 z M 45,155 l 5,0 0,5 -5,0 z M 60,155 l 5,0 0,5 -5,0 z M 65,155 l 5,0 0,5 -5,0 z M 85,155 l 5,0 0,5 -5,0 z M 90,155 l 5,0 0,5 -5,0 z M 95,155 l 5,0 0,5 -5,0 z M 100,155 l 5,0 0,5 -5,0 z M 105,155 l 5,0 0,5 -5,0 z M 110,155 l 5,0 0,5 -5,0 z M 115,155 l 5,0 0,5 -5,0 z M 125,155 l 5,0 0,5 -5,0 z M 135,155 l 5,0 0,5 -5,0 z M 145,155 l 5,0 0,5 -5,0 z M 160,155 l 5,0 0,5 -5,0 z M 165,155 l 5,0 0,5 -5,0 z M 170,155 l 5,0 0,5 -5,0 z M 185,155 l 5,0 0,5 -5,0 z M 190,155 l 5,0 0,5 -5,0 z M 200,155 l 5,0 0,5 -5,0 z M 210,155 l 5,0 0,5 -5,0 z M 215,155 l 5,0 0,5 -5,0 z M 220,155 l 5,0 0,5 -5,0 z M 225,155 l 5,0 0,5 -5,0 z M 20,160 l 5,0 0,5 -5,0 z M 30,160 l 5,0 0,5 -5,0 z M 50,160 l 5,0 0,5 -5,0 z M 55,160 l 5,0 0,5 -5,0 z M 60,160 l 5,0 0,5 -5,0 z M 70,160 l 5,0 0,5 -5,0 z M 80,160 l 5,0 0,5 -5,0 z M 85,160 l 5,0 0,5 -5,0 z M 95,160 l 5,0 0,5 -5,0 z M 115,160 l 5,0 0,5 -5,0 z M 120,160 l 5,0 0,5 -5,0 z M 130,160 l 5,0 0,5 -5,0 z M 135,160 l 5,0 0,5 -5,0 z M 140,160 l 5,0 0,5 -5,0 z M 145,160 l 5,0 0,5 -5,0 z M 155,160 l 5,0 0,5 -5,0 z M 170,160 l 5,0 0,5 -5,0 z M 175,160 l 5,0 0,5 -5,0 z M 195,160 l 5,0 0,5 -5,0 z M 200,160 l 5,0 0,5 -5,0 z M 210,160 l 5,0 0,5 -5,0 z M 5,165 l 5,0 0,5 -5,0 z M 30,165 l 5,0 0,5 -5,0 z M 35,165 l 5,0 0,5 -5,0 z M 45,165 l 5,0 0,5 -5,0 z M 55,165 l 5,0 0,5 -5,0 z M 65,165 l 5,0 0,5 -5,0 z M 95,165 l 5,0 0,5 -5,0 z M 120,165 l 5,0 0,5 -5,0 z M 125,165 l 5,0 0,5 -5,0 z M 135,165 l 5,0 0,5 -5,0 z M 150,165 l 5,0 0,5 -5,0 z M 155,165 l 5,0 0,5 -5,0 z M 160,165 l 5,0 0,5 -5,0 z M 170,165 l 5,0 0,5 -5,0 z M 175,165 l 5,0 0,5 -5,0 z M 180,165 l 5,0 0,5 -5,0 z M 190,165 l 5,0 0,5 -5,0 z M 195,165 l 5,0 0,5 -5,0 z M 200,165 l 5,0 0,5 -5,0 z M 210,165 l 5,0 0,5 -5,0 z M 215,165 l 5,0 0,5 -5,0 z M 220,165 l 5,0 0,5 -5,0 z M 225,165 l 5,0 0,5 -5,0 z M 10,170 l 5,0 0,5 -5,0 z M 15,170 l 5,0 0,5 -5,0 z M 30,170 l 5,0 0,5 -5,0 z M 40,170 l 5,0 0,5 -5,0 z M 50,170 l 5,0 0,5 -5,0 z M 55,170 l 5,0 0,5 -5,0 z M 60,170 l 5,0 0,5 -5,0 z M 70,170 l 5,0 0,5 -5,0 z M 80,170 l 5,0 0,5 -5,0 z M 110,170 l 5,0 0,5 -5,0 z M 115,170 l 5,0 0,5 -5,0 z M 120,170 l 5,0 0,5 -5,0 z M 130,170 l 5,0 0,5 -5,0 z M 145,170 l 5,0 0,5 -5,0 z M 150,170 l 5,0 0,5 -5,0 z M 155,170 l 5,0 0,5 -5,0 z M 165,170 l 5,0 0,5 -5,0 z M 190,170 l 5,0 0,5 -5,0 z M 210,170 l 5,0 0,5 -5,0 z M 220,170 l 5,0 0,5 -5,0 z M 25,175 l 5,0 0,5 -5,0 z M 35,175 l 5,0 0,5 -5,0 z M 40,175 l 5,0 0,5 -5,0 z M 75,175 l 5,0 0,5 -5,0 z M 90,175 l 5,0 0,5 -5,0 z M 95,175 l 5,0 0,5 -5,0 z M 130,175 l 5,0 0,5 -5,0 z M 135,175 l 5,0 0,5 -5,0 z M 140,175 l 5,0 0,5 -5,0 z M 165,175 l 5,0 0,5 -5,0 z M 170,175 l 5,0 0,5 -5,0 z M 185,175 l 5,0 0,5 -5,0 z M 190,175 l 5,0 0,5 -5,0 z M 195,175 l 5,0 0,5 -5,0 z M 215,175 l 5,0 0,5 -5,0 z M 225,175 l 5,0 0,5 -5,0 z M 10,180 l 5,0 0,5 -5,0 z M 15,180 l 5,0 0,5 -5,0 z M 20,180 l 5,0 0,5 -5,0 z M 25,180 l 5,0 0,5 -5,0 z M 40,180 l 5,0 0,5 -5,0 z M 45,180 l 5,0 0,5 -5,0 z M 50,180 l 5,0 0,5 -5,0 z M 55,180 l 5,0 0,5 -5,0 z M 60,180 l 5,0 0,5 -5,0 z M 70,180 l 5,0 0,5 -5,0 z M 80,180 l 5,0 0,5 -5,0 z M 90,180 l 5,0 0,5 -5,0 z M 100,180 l 5,0 0,5 -5,0 z M 110,180 l 5,0 0,5 -5,0 z M 120,180 l 5,0 0,5 -5,0 z M 125,180 l 5,0 0,5 -5,0 z M 130,180 l 5,0 0,5 -5,0 z M 135,180 l 5,0 0,5 -5,0 z M 140,180 l 5,0 0,5 -5,0 z M 145,180 l 5,0 0,5 -5,0 z M 150,180 l 5,0 0,5 -5,0 z M 170,180 l 5,0 0,5 -5,0 z M 175,180 l 5,0 0,5 -5,0 z M 195,180 l 5,0 0,5 -5,0 z M 205,180 l 5,0 0,5 -5,0 z M 215,180 l 5,0 0,5 -5,0 z M 220,180 l 5,0 0,5 -5,0 z M 5,185 l 5,0 0,5 -5,0 z M 20,185 l 5,0 0,5 -5,0 z M 25,185 l 5,0 0,5 -5,0 z M 35,185 l 5,0 0,5 -5,0 z M 40,185 l 5,0 0,5 -5,0 z M 55,185 l 5,0 0,5 -5,0 z M 65,185 l 5,0 0,5 -5,0 z M 70,185 l 5,0 0,5 -5,0 z M 75,185 l 5,0 0,5 -5,0 z M 80,185 l 5,0 0,5 -5,0 z M 90,185 l 5,0 0,5 -5,0 z M 95,185 l 5,0 0,5 -5,0 z M 105,185 l 5,0 0,5 -5,0 z M 110,185 l 5,0 0,5 -5,0 z M 115,185 l 5,0 0,5 -5,0 z M 120,185 l 5,0 0,5 -5,0 z M 125,185 l 5,0 0,5 -5,0 z M 135,185 l 5,0 0,5 -5,0 z M 145,185 l 5,0 0,5 -5,0 z M 185,185 l 5,0 0,5 -5,0 z M 190,185 l 5,0 0,5 -5,0 z M 195,185 l 5,0 0,5 -5,0 z M 200,185 l 5,0 0,5 -5,0 z M 205,185 l 5,0 0,5 -5,0 z M 220,185 l 5,0 0,5 -5,0 z M 45,190 l 5,0 0,5 -5,0 z M 60,190 l 5,0 0,5 -5,0 z M 70,190 l 5,0 0,5 -5,0 z M 95,190 l 5,0 0,5 -5,0 z M 100,190 l 5,0 0,5 -5,0 z M 105,190 l 5,0 0,5 -5,0 z M 125,190 l 5,0 0,5 -5,0 z M 130,190 l 5,0 0,5 -5,0 z M 150,190 l 5,0 0,5 -5,0 z M 160,190 l 5,0 0,5 -5,0 z M 170,190 l 5,0 0,5 -5,0 z M 175,190 l 5,0 0,5 -5,0 z M 180,190 l 5,0 0,5 -5,0 z M 185,190 l 5,0 0,5 -5,0 z M 205,190 l 5,0 0,5 -5,0 z M 210,190 l 5,0 0,5 -5,0 z M 5,195 l 5,0 0,5 -5,0 z M 10,195 l 5,0 0,5 -5,0 z M 15,195 l 5,0 0,5 -5,0 z M 20,195 l 5,0 0,5 -5,0 z M 25,195 l 5,0 0,5 -5,0 z M 30,195 l 5,0 0,5 -5,0 z M 35,195 l 5,0 0,5 -5,0 z M 45,195 l 5,0 0,5 -5,0 z M 70,195 l 5,0 0,5 -5,0 z M 75,195 l 5,0 0,5 -5,0 z M 80,195 l 5,0 0,5 -5,0 z M 85,195 l 5,0 0,5 -5,0 z M 105,195 l 5,0 0,5 -5,0 z M 115,195 l 5,0 0,5 -5,0 z M 125,195 l 5,0 0,5 -5,0 z M 135,195 l 5,0 0,5 -5,0 z M 145,195 l 5,0 0,5 -5,0 z M 160,195 l 5,0 0,5 -5,0 z M 165,195 l 5,0 0,5 -5,0 z M 170,195 l 5,0 0,5 -5,0 z M 180,195 l 5,0 0,5 -5,0 z M 185,195 l 5,0 0,5 -5,0 z M 195,195 l 5,0 0,5 -5,0 z M 205,195 l 5,0 0,5 -5,0 z M 210,195 l 5,0 0,5 -5,0 z M 215,195 l 5,0 0,5 -5,0 z M 220,195 l 5,0 0,5 -5,0 z M 225,195 l 5,0 0,5 -5,0 z M 5,200 l 5,0 0,5 -5,0 z M 35,200 l 5,0 0,5 -5,0 z M 60,200 l 5,0 0,5 -5,0 z M 65,200 l 5,0 0,5 -5,0 z M 75,200 l 5,0 0,5 -5,0 z M 80,200 l 5,0 0,5 -5,0 z M 95,200 l 5,0 0,5 -5,0 z M 100,200 l 5,0 0,5 -5,0 z M 105,200 l 5,0 0,5 -5,0 z M 125,200 l 5,0 0,5 -5,0 z M 145,200 l 5,0 0,5 -5,0 z M 150,200 l 5,0 0,5 -5,0 z M 160,200 l 5,0 0,5 -5,0 z M 165,200 l 5,0 0,5 -5,0 z M 185,200 l 5,0 0,5 -5,0 z M 205,200 l 5,0 0,5 -5,0 z M 215,200 l 5,0 0,5 -5,0 z M 220,200 l 5,0 0,5 -5,0 z M 5,205 l 5,0 0,5 -5,0 z M 15,205 l 5,0 0,5 -5,0 z M 20,205 l 5,0 0,5 -5,0 z M 25,205 l 5,0 0,5 -5,0 z M 35,205 l 5,0 0,5 -5,0 z M 45,205 l 5,0 0,5 -5,0 z M 60,205 l 5,0 0,5 -5,0 z M 65,205 l 5,0 0,5 -5,0 z M 70,205 l 5,0 0,5 -5,0 z M 75,205 l 5,0 0,5 -5,0 z M 80,205 l 5,0 0,5 -5,0 z M 95,205 l 5,0 0,5 -5,0 z M 105,205 l 5,0 0,5 -5,0 z M 110,205 l 5,0 0,5 -5,0 z M 115,205 l 5,0 0,5 -5,0 z M 120,205 l 5,0 0,5 -5,0 z M 125,205 l 5,0 0,5 -5,0 z M 130,205 l 5,0 0,5 -5,0 z M 135,205 l 5,0 0,5 -5,0 z M 170,205 l 5,0 0,5 -5,0 z M 175,205 l 5,0 0,5 -5,0 z M 180,205 l 5,0 0,5 -5,0 z M 185,205 l 5,0 0,5 -5,0 z M 190,205 l 5,0 0,5 -5,0 z M 195,205 l 5,0 0,5 -5,0 z M 200,205 l 5,0 0,5 -5,0 z M 205,205 l 5,0 0,5 -5,0 z M 210,205 l 5,0 0,5 -5,0 z M 220,205 l 5,0 0,5 -5,0 z M 225,205 l 5,0 0,5 -5,0 z M 5,210 l 5,0 0,5 -5,0 z M 15,210 l 5,0 0,5 -5,0 z M 20,210 l 5,0 0,5 -5,0 z M 25,210 l 5,0 0,5 -5,0 z M 35,210 l 5,0 0,5 -5,0 z M 45,210 l 5,0 0,5 -5,0 z M 55,210 l 5,0 0,5 -5,0 z M 65,210 l 5,0 0,5 -5,0 z M 85,210 l 5,0 0,5 -5,0 z M 95,210 l 5,0 0,5 -5,0 z M 100,210 l 5,0 0,5 -5,0 z M 110,210 l 5,0 0,5 -5,0 z M 120,210 l 5,0 0,5 -5,0 z M 130,210 l 5,0 0,5 -5,0 z M 145,210 l 5,0 0,5 -5,0 z M 150,210 l 5,0 0,5 -5,0 z M 155,210 l 5,0 0,5 -5,0 z M 165,210 l 5,0 0,5 -5,0 z M 185,210 l 5,0 0,5 -5,0 z M 190,210 l 5,0 0,5 -5,0 z M 200,210 l 5,0 0,5 -5,0 z M 210,210 l 5,0 0,5 -5,0 z M 5,215 l 5,0 0,5 -5,0 z M 15,215 l 5,0 0,5 -5,0 z M 20,215 l 5,0 0,5 -5,0 z M 25,215 l 5,0 0,5 -5,0 z M 35,215 l 5,0 0,5 -5,0 z M 45,215 l 5,0 0,5 -5,0 z M 60,215 l 5,0 0,5 -5,0 z M 65,215 l 5,0 0,5 -5,0 z M 75,215 l 5,0 0,5 -5,0 z M 80,215 l 5,0 0,5 -5,0 z M 85,215 l 5,0 0,5 -5,0 z M 90,215 l 5,0 0,5 -5,0 z M 105,215 l 5,0 0,5 -5,0 z M 110,215 l 5,0 0,5 -5,0 z M 125,215 l 5,0 0,5 -5,0 z M 130,215 l 5,0 0,5 -5,0 z M 135,215 l 5,0 0,5 -5,0 z M 140,215 l 5,0 0,5 -5,0 z M 150,215 l 5,0 0,5 -5,0 z M 160,215 l 5,0 0,5 -5,0 z M 165,215 l 5,0 0,5 -5,0 z M 170,215 l 5,0 0,5 -5,0 z M 180,215 l 5,0 0,5 -5,0 z M 195,215 l 5,0 0,5 -5,0 z M 200,215 l 5,0 0,5 -5,0 z M 5,220 l 5,0 0,5 -5,0 z M 35,220 l 5,0 0,5 -5,0 z M 45,220 l 5,0 0,5 -5,0 z M 65,220 l 5,0 0,5 -5,0 z M 85,220 l 5,0 0,5 -5,0 z M 90,220 l 5,0 0,5 -5,0 z M 100,220 l 5,0 0,5 -5,0 z M 105,220 l 5,0 0,5 -5,0 z M 110,220 l 5,0 0,5 -5,0 z M 130,220 l 5,0 0,5 -5,0 z M 135,220 l 5,0 0,5 -5,0 z M 140,220 l 5,0 0,5 -5,0 z M 150,220 l 5,0 0,5 -5,0 z M 155,220 l 5,0 0,5 -5,0 z M 180,220 l 5,0 0,5 -5,0 z M 185,220 l 5,0 0,5 -5,0 z M 190,220 l 5,0 0,5 -5,0 z M 195,220 l 5,0 0,5 -5,0 z M 210,220 l 5,0 0,5 -5,0 z M 215,220 l 5,0 0,5 -5,0 z M 225,220 l 5,0 0,5 -5,0 z M 5,225 l 5,0 0,5 -5,0 z M 10,225 l 5,0 0,5 -5,0 z M 15,225 l 5,0 0,5 -5,0 z M 20,225 l 5,0 0,5 -5,0 z M 25,225 l 5,0 0,5 -5,0 z M 30,225 l 5,0 0,5 -5,0 z M 35,225 l 5,0 0,5 -5,0 z M 45,225 l 5,0 0,5 -5,0 z M 50,225 l 5,0 0,5 -5,0 z M 65,225 l 5,0 0,5 -5,0 z M 75,225 l 5,0 0,5 -5,0 z M 90,225 l 5,0 0,5 -5,0 z M 95,225 l 5,0 0,5 -5,0 z M 100,225 l 5,0 0,5 -5,0 z M 120,225 l 5,0 0,5 -5,0 z M 130,225 l 5,0 0,5 -5,0 z M 145,225 l 5,0 0,5 -5,0 z M 150,225 l 5,0 0,5 -5,0 z M 155,225 l 5,0 0,5 -5,0 z M 160,225 l 5,0 0,5 -5,0 z M 175,225 l 5,0 0,5 -5,0 z M 180,225 l 5,0 0,5 -5,0 z M 190,225 l 5,0 0,5 -5,0 z M 215,225 l 5,0 0,5 -5,0 z " />
	</g>
</svg>
